<?xml version="1.0" encoding="UTF-8" standalone="no"?>
<svg
   width="2100"
   height="2100"
   viewBox="0 0 2100 2100"
   version="1.1"
   xml:space="preserve"
   style="clip-rule:evenodd;fill-rule:evenodd;stroke-linejoin:round;stroke-miterlimit:2"
   id="svg1110"
   sodipodi:docname="Open_Geospatial_Consortium_logo.svg"
   inkscape:version="1.1.2 (0a00cf5339, 2022-02-04)"
   xmlns:inkscape="http://www.inkscape.org/namespaces/inkscape"
   xmlns:sodipodi="http://sodipodi.sourceforge.net/DTD/sodipodi-0.dtd"
   xmlns="http://www.w3.org/2000/svg"
   xmlns:svg="http://www.w3.org/2000/svg"
   xmlns:serif="http://www.serif.com/"><defs
   id="defs1114" /><sodipodi:namedview
   id="namedview1112"
   pagecolor="#ffffff"
   bordercolor="#666666"
   borderopacity="1.0"
   inkscape:pageshadow="2"
   inkscape:pageopacity="0.0"
   inkscape:pagecheckerboard="0"
   showgrid="false"
   inkscape:zoom="0.128375"
   inkscape:cx="1491.7235"
   inkscape:cy="1409.9318"
   inkscape:window-width="1920"
   inkscape:window-height="983"
   inkscape:window-x="0"
   inkscape:window-y="0"
   inkscape:window-maximized="1"
   inkscape:current-layer="OGC-2D-Lockup-w--Trademark" />
    <g
   id="OGC-2D-Lockup-w--Trademark"
   serif:id="OGC 2D Lockup w/ Trademark"
   transform="matrix(20.0651,0,0,20.0651,-1435.09,-1024.14)">
        
        <g
   id="Cube"
   transform="translate(-35.927056,-49.446524)">
            <g
   transform="translate(156.217,161.569)"
   id="g1098">
                <path
   d="M 0,14.653 0.001,43.983 -42.312,19.554 -42.313,-29.33 0,-4.901 v 9.776 l -8.446,-4.874 -4.233,-2.445 -21.167,-12.221 v 29.33 l 25.4,14.666 v -9.777 l -12.7,-7.333 0.001,-4.888 h -0.001 V 2.445 Z"
   style="fill:#00b1ff;fill-rule:nonzero"
   id="path1096" />
            </g>
            <g
   transform="translate(160.455,110.261)"
   id="g1102">
                <path
   d="M 0,29.33 -25.403,14.665 0,-0.001 25.399,14.665 21.167,17.109 Z M -0.001,-9.777 -42.336,14.665 -0.001,39.107 42.333,14.665 Z"
   style="fill:#00b1ff;fill-rule:nonzero"
   id="path1100" />
            </g>
            <g
   transform="translate(181.66,181.239)"
   id="g1106">
                <path
   d="m 0,-24.688 8.468,-4.888 8.466,-4.889 10e-4,9.777 8.444,-4.875 v -19.444 l -42.312,24.429 v 9.666 h 0.001 l -0.001,2.918 0.001,36.19 -0.022,-0.013 v 0.136 L 25.379,-0.123 v -19.665 l -8.444,4.877 v 9.776 L -8.466,9.53 -8.465,-19.799 Z"
   style="fill:#00b1ff;fill-rule:nonzero"
   id="path1104" />
            </g>
        </g>
    </g>
</svg>
