<?xml version="1.0" encoding="utf-8"?>
<!-- Generator: Adobe Illustrator 22.1.0, SVG Export Plug-In . SVG Version: 6.00 Build 0)  -->
<svg version="1.1" id="Layer_1" xmlns="http://www.w3.org/2000/svg" xmlns:xlink="http://www.w3.org/1999/xlink" x="0px" y="0px"
	 viewBox="0 0 512 512" style="enable-background:new 0 0 512 512;" xml:space="preserve">
<g>
	<path d="M256,31C131.7,31,31,62.5,31,101.3v56.2c0,38.8,100.7,70.3,225,70.3s225-31.5,225-70.3v-56.2C481,62.5,380.3,31,256,31z"/>
	<path d="M256,270.1c-124.3,0-225-31.5-225-70.3v84.4c0,38.8,100.7,70.3,225,70.3s225-31.5,225-70.3v-84.4
		C481,238.6,380.3,270.1,256,270.1z"/>
	<path d="M256,396.6c-124.3,0-225-31.5-225-70.3v84.4c0,38.8,100.7,70.3,225,70.3s225-31.5,225-70.3v-84.4
		C481,365.2,380.3,396.6,256,396.6z"/>
</g>
</svg>
