<?xml version="1.0" encoding="utf-8"?>
<!-- Generator: Adobe Illustrator 26.0.3, SVG Export Plug-In . SVG Version: 6.00 Build 0)  -->
<svg version="1.0" id="Layer_1" xmlns="http://www.w3.org/2000/svg" xmlns:xlink="http://www.w3.org/1999/xlink" x="0px" y="0px"
	 viewBox="0 0 1158.2 860.4" style="enable-background:new 0 0 1158.2 860.4;" xml:space="preserve">
<style type="text/css">
	.st0{fill:#095CA2;}
	.st1{fill:#FFFFFF;}
	.st2{fill:#32BEED;}
	.st3{fill:#1B1B20;}
</style>
<path class="st0" d="M927.7,197.8H608.8c-3.4,0.1-6.8-0.9-9.5-3l-91.2-60.7c-2.9-1.7-6.1-2.6-9.5-2.6H230.5c-9.3,0-17,7.4-17.2,16.8
	v563.7c0.2,9.3,7.9,16.8,17.2,16.8h697.1c9.3,0,17-7.5,17.2-16.8v-497C944.9,205.6,937.2,197.8,927.7,197.8L927.7,197.8z"/>
<path class="st1" d="M439.3,164.3H286.9c-3.8,0-6.9,3.1-6.9,6.9v19.4c0,3.8,3.1,6.9,6.9,6.9h152.3c3.8,0,6.9-3.1,6.9-6.9
	c0,0,0,0,0,0v-19.4C446.1,167.3,443.1,164.3,439.3,164.3z"/>
<path class="st2" d="M308.4,164.3h-23.7c-2.6,0-4.7,2.1-4.7,4.7v23.7c0,2.6,2.1,4.7,4.7,4.7h23.7c2.6,0,4.7-2.1,4.7-4.7V169
	C313.2,166.4,311.1,164.3,308.4,164.3z"/>
<path class="st3" d="M927.7,197H579.1c-4.6-0.1-9,1.8-12,5.2L509,258.1c-3.3,3-7.6,4.7-12,4.7H230.5c-9.5,0-17.2,7.7-17.2,17.2l0,0
	v430.3c0.2,9.3,7.9,16.8,17.2,16.8h697.1c9.3,0,17-7.4,17.2-16.8V215c0.1-2.3-0.3-4.7-1.1-6.9C941.3,201.4,934.9,197,927.7,197z"/>
<path class="st1" d="M629.9,288.2c-1.1-0.3-2.3-0.3-3.5,0c0,0-3.9,0-5.6,3l-136,197.5c-1.2,2.1-1.2,4.8,0,6.9c1.3,2.4,3.7,4,6.5,4.3
	h80.5l-35.6,119.6c-0.4,0.7-0.6,1.5-0.6,2.2c0,0.8,0.1,1.6,0.4,2.3c0.3,0.7,0.7,1.4,1.3,1.9c0.6,0.6,1.3,1,2,1.3c1,0.4,2,0.4,3,0
	c2.6,0,3.9,0,5.6-3L688,423.7v-4.3c-0.2-3.9-3.4-6.9-7.3-6.9h-86.1l34.9-117.5C631.2,293.2,631.3,290.3,629.9,288.2L629.9,288.2z"/>
</svg>
